<svg id="Layer_1" data-name="Layer 1" xmlns="http://www.w3.org/2000/svg" viewBox="0 0 132 132"><defs><style>.cls-1{fill:#212121;}.cls-2{fill:#f9f9f9;}.cls-3{fill:none;stroke:#f9f9f9;stroke-miterlimit:10;stroke-width:6px;}</style></defs><title>logo1</title><rect class="cls-1" width="132" height="132"/><path class="cls-2" d="M34.07,44.74a22.1,22.1,0,0,1,2.22-.24c.72,0,1.46-.06,2.22-.06s1.38,0,2.1.06a22.1,22.1,0,0,1,2.22.24V88a19.52,19.52,0,0,1-2.22.24q-1.08.06-2.16.06t-2.16-.06A19.52,19.52,0,0,1,34.07,88Zm10,21.48L55.79,44.8a23.63,23.63,0,0,1,2.55-.3c.78,0,1.49-.06,2.13-.06s1.44.05,2.28.12,1.72.17,2.64.24L53.57,65.62,66.41,88q-1.38.1-2.67.24c-.86.07-1.63.11-2.31.11s-1.35,0-2.13-.06A23.08,23.08,0,0,1,56.69,88Z"/><path class="cls-2" d="M67.61,44.8,70,44.56c.88-.07,1.66-.12,2.34-.12a34,34,0,0,1,4.8.36l9.42,34,9.54-34c.8-.11,1.57-.2,2.31-.24s1.49-.06,2.25-.06,1.45,0,2.19.06,1.51.13,2.31.24L91.19,88c-.84.11-1.65.2-2.43.26s-1.61.09-2.49.09-1.58,0-2.34-.09-1.6-.15-2.52-.26Z"/><rect class="cls-3" x="11" y="11" width="110" height="110"/></svg>